# xmcd CD database file
#
# Track frame offsets:
#	150
#	19620
#	36199
#	58790
#	80829
#	112264
#	123911
#	135522
#	158137
#	177812
#	197223
#	213226
#
# Disc length: 3045 seconds
#
# Revision: 0
# Processed by: cddbd v1.5.2PL0 Copyright (c) Steve Scherf et al.
# Submitted via: CDex 1.70beta2
#
DISCID=a60be30c
DTITLE=The Blue Heads - featuring the music of Gerard Sekoto
DYEAR=2004
DGENRE=Blues
TTITLE0=Africa
TTITLE1=Shuffle on to Samba
TTITLE2=Igoli
TTITLE3=Fate
TTITLE4=Zondi
TTITLE5=It's You (Instrumental)
TTITLE6=It's You
TTITLE7=Angelina my darling
TTITLE8=But
TTITLE9=Dudu
TTITLE10=My dreamboat
TTITLE11=Parree always is Parree
EXTD=YEAR: 2004
EXTT0=
EXTT1=
EXTT2=
EXTT3=
EXTT4=
EXTT5=
EXTT6=
EXTT7=
EXTT8=
EXTT9=
EXTT10=
EXTT11=
PLAYORDER=
